<svg width="15" height="15" viewBox="0 0 15 15" fill="none" xmlns="http://www.w3.org/2000/svg">
<g clip-path="url(#clip0_6_602)">
<path d="M6.93339 6H8.06672V4.3H9.76673V3.16667H8.06672V1.46667H6.93339V3.16667H5.23339V4.3H6.93339V6ZM4.66672 11.1C4.04339 11.1 3.53906 11.61 3.53906 12.2333C3.53906 12.8567 4.04339 13.3667 4.66672 13.3667C5.29006 13.3667 5.80006 12.8567 5.80006 12.2333C5.80006 11.61 5.29006 11.1 4.66672 11.1ZM10.3334 11.1C9.71006 11.1 9.20573 11.61 9.20573 12.2333C9.20573 12.8567 9.71006 13.3667 10.3334 13.3667C10.9567 13.3667 11.4667 12.8567 11.4667 12.2333C11.4667 11.61 10.9567 11.1 10.3334 11.1ZM4.76306 9.25833L4.78006 9.19033L5.29006 8.26667H9.51173C9.93673 8.26667 10.3107 8.03433 10.5034 7.683L12.6907 3.71067L11.7047 3.16667H11.6991L11.0757 4.3L9.51173 7.13333H5.53372L5.46006 6.98033L4.19072 4.3L3.65239 3.16667L3.11972 2.03333H1.26672V3.16667H2.40006L4.44006 7.46767L3.67506 8.856C3.58439 9.01467 3.53339 9.20167 3.53339 9.4C3.53339 10.0233 4.04339 10.5333 4.66672 10.5333H11.4667V9.4H4.90472C4.83106 9.4 4.76306 9.33767 4.76306 9.25833Z" fill="white"/>
</g>
<defs>
<clipPath id="clip0_6_602">
<rect width="13.6" height="13.6" fill="white" transform="translate(0.700073 0.900002)"/>
</clipPath>
</defs>
</svg>
